<svg width="635.22998046875px" height="179.375px" xmlns="http://www.w3.org/2000/svg" viewBox="-67.614990234375 -14.6875 635.22998046875 179.375" style="background: rgba(0, 0, 0, 0);" preserveAspectRatio="xMidYMid"><defs><filter id="editing-golden" x="-100%" y="-100%" width="300%" height="300%"><feFlood flood-color="#806527" result="flood"></feFlood><feFlood flood-color="#fff694" result="flood-light"></feFlood><feComposite operator="in" in="flood" in2="SourceAlpha" result="flood-comp"></feComposite><feGaussianBlur in="flood-comp" stdDeviation="3" result="blur"></feGaussianBlur><feOffset in="blur" dy="3" result="offset-blur"></feOffset><feComponentTransfer in="offset-blur" result="comp-blur"><feFuncA type="linear" slope="0.7" intercept="-0.1"></feFuncA></feComponentTransfer><feSpecularLighting surfaceScale="200" specularConstant="20" specularExponent="1" lighting-color="#fff" in="blur" result="specular"><fePointLight x="-250" y="-250" z="3500"></fePointLight></feSpecularLighting><feComponentTransfer in="specular" result="inspecular"><feFuncA type="linear" slope="-1" intercept="1"></feFuncA></feComponentTransfer><feComposite operator="in" in="flood-light" in2="inspecular" result="inspecular2"></feComposite><feComposite operator="in" in="inspecular2" in2="SourceAlpha" result="light"></feComposite><feMerge><feMergeNode in="comp-blur"></feMergeNode><feMergeNode in="SourceGraphic"></feMergeNode><feMergeNode in="light"></feMergeNode></feMerge></filter></defs><g filter="url(#editing-golden)"><g transform="translate(27.57499998807907, 110.56999969482422)"><path d="M1.65-49.57L1.65-49.57L1.65-49.57Q0.55-52.23 0.55-55.86L0.55-55.86L0.55-55.86Q0.55-59.48 0.83-61.80L0.83-61.80L0.83-61.80Q1.10-64.12 1.56-66.00L1.56-66.00L1.56-66.00Q2.66-70.22 4.27-70.22L4.27-70.22L44.71-70.22L44.71-70.22Q47.37-70.22 48.29-62.33L48.29-62.33L48.29-62.33Q48.51-60.13 48.51-57.79L48.51-57.79L48.51-57.79Q48.51-52.28 47.32-49.57L47.32-49.57L47.32-49.57Q43.37-61.83 37.09-65.27L37.09-65.27L37.09-65.27Q35.66-66.09 34.29-66.09L34.29-66.09L34.29-66.09Q32.91-66.09 32.13-65.38L32.13-65.38L32.13-65.38Q31.35-64.67 30.84-63.11L30.84-63.11L30.84-63.11Q30.02-60.36 30.02-56.50L30.02-56.50L30.02-39.29L30.06-25.24L30.06-11.93L30.06-11.93Q30.06-7.44 31.23-5.30L31.23-5.30L31.23-5.30Q32.40-3.17 33.62-2.07L33.62-2.07L33.62-2.07Q34.84-0.96 36.49 0L36.49 0L13.04 0L13.04 0Q16.34-2.71 17.26-4.45L17.26-4.45L17.26-4.45Q18.96-7.62 18.96-11.93L18.96-11.93L18.96-53.29L18.96-53.29Q18.96-60.49 18.41-62.58L18.41-62.58L18.41-62.58Q17.85-64.67 17.07-65.38L17.07-65.38L17.07-65.38Q16.29-66.09 14.92-66.09L14.92-66.09L14.92-66.09Q13.54-66.09 12.12-65.29L12.12-65.29L12.12-65.29Q10.69-64.49 9.34-63.18L9.34-63.18L9.34-63.18Q7.99-61.87 6.77-60.15L6.77-60.15L6.77-60.15Q5.55-58.43 4.54-56.59L4.54-56.59L4.54-56.59Q2.57-52.97 1.65-49.57ZM102.58 0L86.56 0L86.56 0Q87.16-2.89 87.16-4.61L87.16-4.61L87.16-4.61Q87.16-6.33 87.09-7.21L87.09-7.21L87.09-7.21Q87.02-8.08 86.91-9.06L86.91-9.06L86.91-9.06Q86.79-10.05 86.63-11.27L86.63-11.27L86.63-11.27Q86.47-12.48 86.33-14.09L86.33-14.09L86.33-14.09Q85.28-25.06 78.85-32.13L78.85-32.13L78.85-32.13Q76.01-35.25 72.70-36.88L72.70-36.88L72.70-36.88Q69.40-38.51 67.26-38.51L67.26-38.51L67.26-38.51Q65.13-38.51 63.98-38.23L63.98-38.23L63.98-38.23Q61.41-30.52 61.41-22.12L61.41-22.12L61.41-22.12Q61.41-14.69 62.19-11.02L62.19-11.02L62.19-11.02Q63.43-5.51 66.00 0.05L66.00 0.05L52.28 0.05L52.28 0.05Q53.38-2.71 53.38-11.54L53.38-11.54L53.38-11.54Q53.38-20.38 54.71-28.07L54.71-28.07L54.71-28.07Q56.04-35.75 58.18-41.77L58.18-41.77L58.18-41.77Q60.31-47.78 62.95-52.30L62.95-52.30L62.95-52.30Q65.59-56.82 68.23-60.20L68.23-60.20L68.23-60.20Q70.87-63.57 73.21-65.98L73.21-65.98L73.21-65.98Q75.55-68.39 77.11-70.22L77.11-70.22L91.57-70.22L91.57-70.22Q89.59-67.98 89.59-63.94L89.59-63.94L89.59-63.94Q89.59-62.10 90.19-57.92L90.19-57.92L91.34-49.57L91.34-49.57Q97.63-6.24 102.58 0L102.58 0ZM65.86-43.10L65.86-43.10L65.86-43.10Q67.65-43.79 69.63-43.79L69.63-43.79L69.63-43.79Q71.60-43.79 73.19-43.51L73.19-43.51L73.19-43.51Q74.77-43.24 76.33-42.59L76.33-42.59L76.33-42.59Q79.68-41.31 81.93-38.51L81.93-38.51L81.93-38.51Q79.68-50.30 79.17-52.92L79.17-52.92L77.57-60.95L74.95-57.83L74.95-57.83Q69.44-51.22 65.86-43.10ZM136.32-37.09L136.32-37.09L136.36-19.74L136.36-19.74Q136.36-11.43 132.19-5.69L132.19-5.69L132.19-5.69Q127.28 0.92 118.51 0.92L118.51 0.92L118.51 0.92Q111.63 0.92 107.49-3.67L107.49-3.67L107.49-3.67Q103.73-7.85 103.73-13.77L103.73-13.77L103.73-13.77Q105.80-18.54 108.14-21.07L108.14-21.07L108.14-21.07Q111.99-25.24 114.56-25.70L114.56-25.70L114.56-25.70Q113.83-21.53 113.83-18.04L113.83-18.04L113.83-18.04Q113.83-14.55 114.13-12.14L114.13-12.14L114.13-12.14Q114.42-9.73 115.11-7.85L115.11-7.85L115.11-7.85Q116.63-3.67 119.89-3.67L119.89-3.67L119.89-3.67Q122.73-3.67 124.20-7.34L124.20-7.34L124.20-7.34Q125.44-10.37 125.44-15.47L125.44-15.47L125.44-26.48L125.44-26.48Q125.44-46.40 125.17-60.04L125.17-60.04L125.17-60.04Q125.07-63.66 124.09-66.02L124.09-66.02L124.09-66.02Q123.10-68.39 120.76-70.22L120.76-70.22L138.89-70.22L138.89-70.22Q137.51-67.75 137.21-64.90L137.21-64.90L137.21-64.90Q136.92-62.05 136.69-58.66L136.69-58.66L136.69-58.66Q136.32-52.19 136.32-37.09ZM167.35-28.18L158.76-54.30L158.76-54.30Q158.58-47.60 158.58-40.44L158.58-40.44L158.58-40.44Q158.58-30.66 158.90-19.37L158.90-19.37L158.90-19.37Q159.22-8.08 159.38-6.54L159.38-6.54L159.38-6.54Q159.54-5.00 159.82-3.86L159.82-3.86L159.82-3.86Q160.32-1.74 161.47 0L161.47 0L148.67 0L148.67 0Q150.41-2.48 150.75-5.32L150.75-5.32L150.75-5.32Q151.10-8.17 151.28-10.83L151.28-10.83L151.28-10.83Q151.65-16.25 151.65-25.38L151.65-25.38L151.65-25.38Q151.65-36.44 151.28-45.58L151.28-45.58L150.78-58.20L150.78-58.20Q150.50-65.18 148.53-68.11L148.53-68.11L148.53-68.11Q147.79-69.21 146.65-70.22L146.65-70.22L164.59-70.22L164.59-70.22Q166.38-62.38 169.04-53.56L169.04-53.56L177.40-26.90L190.20-70.22L208.10-70.22L208.10-70.22Q205.85-68.25 205.17-66.19L205.17-66.19L205.17-66.19Q204.16-63.02 204.02-58.84L204.02-58.84L203.70-50.72L203.70-50.72Q203.10-36.44 203.10-25.38L203.10-25.38L203.10-25.38Q203.10-6.84 204.80-1.84L204.80-1.84L204.80-1.84Q205.12-0.92 205.63 0L205.63 0L191.17 0L191.17 0Q192.41-2.43 192.57-5.26L192.57-5.26L192.57-5.26Q192.73-8.08 192.87-13.04L192.87-13.04L192.87-13.04Q193.42-29.33 193.42-36.76L193.42-36.76L193.42-36.76Q193.42-49.02 193.19-54.99L193.19-54.99L176.30 0L167.35-28.18ZM264.33 0L248.31 0L248.31 0Q248.91-2.89 248.91-4.61L248.91-4.61L248.91-4.61Q248.91-6.33 248.84-7.21L248.84-7.21L248.84-7.21Q248.77-8.08 248.65-9.06L248.65-9.06L248.65-9.06Q248.54-10.05 248.38-11.27L248.38-11.27L248.38-11.27Q248.22-12.48 248.08-14.09L248.08-14.09L248.08-14.09Q247.03-25.06 240.60-32.13L240.60-32.13L240.60-32.13Q237.75-35.25 234.45-36.88L234.45-36.88L234.45-36.88Q231.14-38.51 229.01-38.51L229.01-38.51L229.01-38.51Q226.88-38.51 225.73-38.23L225.73-38.23L225.73-38.23Q223.16-30.52 223.16-22.12L223.16-22.12L223.16-22.12Q223.16-14.69 223.94-11.02L223.94-11.02L223.94-11.02Q225.18-5.51 227.75 0.05L227.75 0.05L214.02 0.05L214.02 0.05Q215.13-2.71 215.13-11.54L215.13-11.54L215.13-11.54Q215.13-20.38 216.46-28.07L216.46-28.07L216.46-28.07Q217.79-35.75 219.92-41.77L219.92-41.77L219.92-41.77Q222.06-47.78 224.70-52.30L224.70-52.30L224.70-52.30Q227.33-56.82 229.97-60.20L229.97-60.20L229.97-60.20Q232.61-63.57 234.95-65.98L234.95-65.98L234.95-65.98Q237.29-68.39 238.86-70.22L238.86-70.22L253.31-70.22L253.31-70.22Q251.34-67.98 251.34-63.94L251.34-63.94L251.34-63.94Q251.34-62.10 251.94-57.92L251.94-57.92L253.08-49.57L253.08-49.57Q259.37-6.24 264.33 0L264.33 0ZM227.61-43.10L227.61-43.10L227.61-43.10Q229.40-43.79 231.37-43.79L231.37-43.79L231.37-43.79Q233.35-43.79 234.93-43.51L234.93-43.51L234.93-43.51Q236.51-43.24 238.08-42.59L238.08-42.59L238.08-42.59Q241.43-41.31 243.67-38.51L243.67-38.51L243.67-38.51Q241.43-50.30 240.92-52.92L240.92-52.92L239.31-60.95L236.70-57.83L236.70-57.83Q231.19-51.22 227.61-43.10ZM296.92-49.57L296.92-49.57L296.92-49.57Q295.82-52.23 295.82-55.86L295.82-55.86L295.82-55.86Q295.82-59.48 296.09-61.80L296.09-61.80L296.09-61.80Q296.37-64.12 296.83-66.00L296.83-66.00L296.83-66.00Q297.93-70.22 299.53-70.22L299.53-70.22L339.97-70.22L339.97-70.22Q342.63-70.22 343.55-62.33L343.55-62.33L343.55-62.33Q343.78-60.13 343.78-57.79L343.78-57.79L343.78-57.79Q343.78-52.28 342.59-49.57L342.59-49.57L342.59-49.57Q338.64-61.83 332.35-65.27L332.35-65.27L332.35-65.27Q330.93-66.09 329.55-66.09L329.55-66.09L329.55-66.09Q328.17-66.09 327.39-65.38L327.39-65.38L327.39-65.38Q326.61-64.67 326.11-63.11L326.11-63.11L326.11-63.11Q325.28-60.36 325.28-56.50L325.28-56.50L325.28-39.29L325.33-25.24L325.33-11.93L325.33-11.93Q325.33-7.44 326.50-5.30L326.50-5.30L326.50-5.30Q327.67-3.17 328.89-2.07L328.89-2.07L328.89-2.07Q330.10-0.96 331.75 0L331.75 0L308.30 0L308.30 0Q311.60-2.71 312.52-4.45L312.52-4.45L312.52-4.45Q314.22-7.62 314.22-11.93L314.22-11.93L314.22-53.29L314.22-53.29Q314.22-60.49 313.67-62.58L313.67-62.58L313.67-62.58Q313.12-64.67 312.34-65.38L312.34-65.38L312.34-65.38Q311.56-66.09 310.18-66.09L310.18-66.09L310.18-66.09Q308.80-66.09 307.38-65.29L307.38-65.29L307.38-65.29Q305.96-64.49 304.60-63.18L304.60-63.18L304.60-63.18Q303.25-61.87 302.03-60.15L302.03-60.15L302.03-60.15Q300.82-58.43 299.81-56.59L299.81-56.59L299.81-56.59Q297.83-52.97 296.92-49.57ZM366.73-43.60L366.73-43.60L366.73-43.60Q363.24-43.60 363.24-37.32L363.24-37.32L363.24-31.53L363.24-31.53Q363.24-15.56 363.58-11.82L363.58-11.82L363.58-11.82Q363.93-8.08 364.27-6.61L364.27-6.61L364.27-6.61Q364.62-5.14 365.21-3.99L365.21-3.99L365.21-3.99Q366.18-2.11 369.07 0L369.07 0L349.56 0L349.56 0Q351.26-3.40 351.63-5.78L351.63-5.78L351.63-5.78Q352.00-8.17 352.18-10.83L352.18-10.83L352.18-10.83Q352.55-16.25 352.55-25.38L352.55-25.38L352.55-25.38Q352.55-36.44 352.18-45.58L352.18-45.58L351.67-58.20L351.67-58.20Q351.49-62.97 350.85-64.85L350.85-64.85L350.85-64.85Q349.84-67.84 347.54-70.22L347.54-70.22L373.20-70.22L373.20-70.22Q383.57-70.22 388.21-68.02L388.21-68.02L388.21-68.02Q393.12-65.73 393.12-60.17L393.12-60.17L393.12-60.17Q393.12-53.38 387.29-48.93L387.29-48.93L387.29-48.93Q380.41-43.60 366.73-43.60ZM378.18-52.03L378.18-52.03L378.18-52.03Q379.63-53.47 380.31-55.10L380.31-55.10L380.31-55.10Q381.00-56.73 381.00-58.13L381.00-58.13L381.00-58.13Q381.00-59.53 380.61-60.91L380.61-60.91L380.61-60.91Q380.22-62.28 379.08-63.34L379.08-63.34L379.08-63.34Q376.50-65.63 370.26-65.63L370.26-65.63L370.26-65.63Q366.50-65.63 365.35-64.72L365.35-64.72L365.35-64.72Q363.24-62.97 363.24-57.88L363.24-57.88L363.24-57.88Q363.24-52.14 364.16-50.79L364.16-50.79L364.16-50.79Q365.08-49.43 366.27-49.04L366.27-49.04L366.27-49.04Q367.46-48.65 369.92-48.65L369.92-48.65L369.92-48.65Q372.37-48.65 374.55-49.62L374.55-49.62L374.55-49.62Q376.73-50.58 378.18-52.03ZM419.47-26.16L419.47-26.16L419.47-26.16Q407.35-26.16 401.52-24.79L401.52-24.79L401.52-34.42L401.52-34.42Q407.35-33.05 419.47-33.05L419.47-33.05L419.47-33.05Q419.47-45.49 418.09-50.99L418.09-50.99L427.73-50.99L427.73-50.99Q426.35-45.49 426.35-33.05L426.35-33.05L426.35-33.05Q438.79-33.05 444.30-34.42L444.30-34.42L444.30-24.79L444.30-24.79Q438.79-26.16 426.35-26.16L426.35-26.16L426.35-26.16Q426.35-14.04 427.73-8.22L427.73-8.22L418.09-8.22L418.09-8.22Q419.47-14.04 419.47-26.16Z" fill="#f7c61d"></path></g></g><style>text {
  font-size: 64px;
  font-family: Arial Black;
  dominant-baseline: central;
  text-anchor: middle;
}</style></svg>