<svg width="1329.000048828125px" height="359.8723510742187px" xmlns="http://www.w3.org/2000/svg" viewBox="-414.5000244140625 -104.93617553710936 1329.000048828125 359.8723510742187" style="background: rgba(0, 0, 0, 0);" preserveAspectRatio="xMidYMid"><defs><filter id="editing-golden" x="-100%" y="-100%" width="300%" height="300%"><feFlood flood-color="#806527" result="flood"></feFlood><feFlood flood-color="#fff694" result="flood-light"></feFlood><feComposite operator="in" in="flood" in2="SourceAlpha" result="flood-comp"></feComposite><feGaussianBlur in="flood-comp" stdDeviation="3" result="blur"></feGaussianBlur><feOffset in="blur" dy="3" result="offset-blur"></feOffset><feComponentTransfer in="offset-blur" result="comp-blur"><feFuncA type="linear" slope="0.7" intercept="-0.1"></feFuncA></feComponentTransfer><feSpecularLighting surfaceScale="200" specularConstant="20" specularExponent="1" lighting-color="#fff" in="blur" result="specular"><fePointLight x="-250" y="-250" z="3500"></fePointLight></feSpecularLighting><feComponentTransfer in="specular" result="inspecular"><feFuncA type="linear" slope="-1" intercept="1"></feFuncA></feComponentTransfer><feComposite operator="in" in="flood-light" in2="inspecular" result="inspecular2"></feComposite><feComposite operator="in" in="inspecular2" in2="SourceAlpha" result="light"></feComposite><feMerge><feMergeNode in="comp-blur"></feMergeNode><feMergeNode in="SourceGraphic"></feMergeNode><feMergeNode in="light"></feMergeNode></feMerge></filter></defs><g filter="url(#editing-golden)"><g transform="translate(-223.2400074005127, 150.68000030517578)"><path d="M3.52-105.47L3.52-105.47L3.52-105.47Q1.17-111.13 1.17-118.85L1.17-118.85L1.17-118.85Q1.17-126.56 1.76-131.49L1.76-131.49L1.76-131.49Q2.34-136.43 3.32-140.43L3.32-140.43L3.32-140.43Q5.66-149.41 9.08-149.41L9.08-149.41L95.12-149.41L95.12-149.41Q100.78-149.41 102.73-132.62L102.73-132.62L102.73-132.62Q103.22-127.93 103.22-122.95L103.22-122.95L103.22-122.95Q103.22-111.23 100.68-105.47L100.68-105.47L100.68-105.47Q92.29-131.54 78.91-138.87L78.91-138.87L78.91-138.87Q75.88-140.63 72.95-140.63L72.95-140.63L72.95-140.63Q70.02-140.63 68.36-139.11L68.36-139.11L68.36-139.11Q66.70-137.60 65.63-134.28L65.63-134.28L65.63-134.28Q63.87-128.42 63.87-120.21L63.87-120.21L63.87-83.59L63.96-53.71L63.96-25.39L63.96-25.39Q63.96-15.82 66.46-11.28L66.46-11.28L66.46-11.28Q68.95-6.74 71.53-4.39L71.53-4.39L71.53-4.39Q74.12-2.05 77.64 0L77.64 0L27.73 0L27.73 0Q34.77-5.76 36.72-9.47L36.72-9.47L36.72-9.47Q40.33-16.21 40.33-25.39L40.33-25.39L40.33-113.38L40.33-113.38Q40.33-128.71 39.16-133.15L39.16-133.15L39.16-133.15Q37.99-137.60 36.33-139.11L36.33-139.11L36.33-139.11Q34.67-140.63 31.74-140.63L31.74-140.63L31.74-140.63Q28.81-140.63 25.78-138.92L25.78-138.92L25.78-138.92Q22.75-137.21 19.87-134.42L19.87-134.42L19.87-134.42Q16.99-131.64 14.40-127.98L14.40-127.98L14.40-127.98Q11.82-124.32 9.67-120.41L9.67-120.41L9.67-120.41Q5.47-112.70 3.52-105.47ZM218.26 0L184.18 0L184.18 0Q185.45-6.15 185.45-9.81L185.45-9.81L185.45-9.81Q185.45-13.48 185.30-15.33L185.30-15.33L185.30-15.33Q185.16-17.19 184.91-19.29L184.91-19.29L184.91-19.29Q184.67-21.39 184.33-23.97L184.33-23.97L184.33-23.97Q183.98-26.56 183.69-29.98L183.69-29.98L183.69-29.98Q181.45-53.32 167.77-68.36L167.77-68.36L167.77-68.36Q161.72-75 154.69-78.47L154.69-78.47L154.69-78.47Q147.66-81.93 143.12-81.93L143.12-81.93L143.12-81.93Q138.57-81.93 136.13-81.35L136.13-81.35L136.13-81.35Q130.66-64.94 130.66-47.07L130.66-47.07L130.66-47.07Q130.66-31.25 132.32-23.44L132.32-23.44L132.32-23.44Q134.96-11.72 140.43 0.10L140.43 0.10L111.23 0.10L111.23 0.10Q113.57-5.76 113.57-24.56L113.57-24.56L113.57-24.56Q113.57-43.36 116.41-59.72L116.41-59.72L116.41-59.72Q119.24-76.07 123.78-88.87L123.78-88.87L123.78-88.87Q128.32-101.66 133.94-111.28L133.94-111.28L133.94-111.28Q139.55-120.90 145.17-128.08L145.17-128.08L145.17-128.08Q150.78-135.25 155.76-140.38L155.76-140.38L155.76-140.38Q160.74-145.51 164.06-149.41L164.06-149.41L194.82-149.41L194.82-149.41Q190.63-144.63 190.63-136.04L190.63-136.04L190.63-136.04Q190.63-132.13 191.89-123.24L191.89-123.24L194.34-105.47L194.34-105.47Q207.71-13.28 218.26 0L218.26 0ZM140.14-91.70L140.14-91.70L140.14-91.70Q143.95-93.16 148.14-93.16L148.14-93.16L148.14-93.16Q152.34-93.16 155.71-92.58L155.71-92.58L155.71-92.58Q159.08-91.99 162.40-90.63L162.40-90.63L162.40-90.63Q169.53-87.89 174.32-81.93L174.32-81.93L174.32-81.93Q169.53-107.03 168.46-112.60L168.46-112.60L165.04-129.69L159.47-123.05L159.47-123.05Q147.75-108.98 140.14-91.70ZM290.04-78.91L290.04-78.91L290.14-41.99L290.14-41.99Q290.14-24.32 281.25-12.11L281.25-12.11L281.25-12.11Q270.80 1.95 252.15 1.95L252.15 1.95L252.15 1.95Q237.50 1.95 228.71-7.81L228.71-7.81L228.71-7.81Q220.70-16.70 220.70-29.30L220.70-29.30L220.70-29.30Q225.10-39.45 230.08-44.82L230.08-44.82L230.08-44.82Q238.28-53.71 243.75-54.69L243.75-54.69L243.75-54.69Q242.19-45.80 242.19-38.38L242.19-38.38L242.19-38.38Q242.19-30.96 242.82-25.83L242.82-25.83L242.82-25.83Q243.46-20.70 244.92-16.70L244.92-16.70L244.92-16.70Q248.14-7.81 255.08-7.81L255.08-7.81L255.08-7.81Q261.13-7.81 264.26-15.63L264.26-15.63L264.26-15.63Q266.89-22.07 266.89-32.91L266.89-32.91L266.89-56.35L266.89-56.35Q266.89-98.73 266.31-127.73L266.31-127.73L266.31-127.73Q266.11-135.45 264.01-140.48L264.01-140.48L264.01-140.48Q261.91-145.51 256.93-149.41L256.93-149.41L295.51-149.41L295.51-149.41Q292.58-144.14 291.94-138.09L291.94-138.09L291.94-138.09Q291.31-132.03 290.82-124.80L290.82-124.80L290.82-124.80Q290.04-111.04 290.04-78.91ZM356.05-59.96L337.79-115.53L337.79-115.53Q337.40-101.27 337.40-86.04L337.40-86.04L337.40-86.04Q337.40-65.23 338.09-41.21L338.09-41.21L338.09-41.21Q338.77-17.19 339.11-13.92L339.11-13.92L339.11-13.92Q339.45-10.64 340.04-8.20L340.04-8.20L340.04-8.20Q341.11-3.71 343.55 0L343.55 0L316.31 0L316.31 0Q320.02-5.27 320.75-11.33L320.75-11.33L320.75-11.33Q321.48-17.38 321.88-23.05L321.88-23.05L321.88-23.05Q322.66-34.57 322.66-54.00L322.66-54.00L322.66-54.00Q322.66-77.54 321.88-96.97L321.88-96.97L320.80-123.83L320.80-123.83Q320.21-138.67 316.02-144.92L316.02-144.92L316.02-144.92Q314.45-147.27 312.01-149.41L312.01-149.41L350.20-149.41L350.20-149.41Q354.00-132.71 359.67-113.96L359.67-113.96L377.44-57.23L404.69-149.41L442.77-149.41L442.77-149.41Q437.99-145.21 436.52-140.82L436.52-140.82L436.52-140.82Q434.38-134.08 434.08-125.20L434.08-125.20L433.40-107.91L433.40-107.91Q432.13-77.54 432.13-54.00L432.13-54.00L432.13-54.00Q432.13-14.55 435.74-3.91L435.74-3.91L435.74-3.91Q436.43-1.95 437.50 0L437.50 0L406.74 0L406.74 0Q409.38-5.18 409.72-11.18L409.72-11.18L409.72-11.18Q410.06-17.19 410.35-27.73L410.35-27.73L410.35-27.73Q411.52-62.40 411.52-78.22L411.52-78.22L411.52-78.22Q411.52-104.30 411.04-116.99L411.04-116.99L375.10 0L356.05-59.96ZM562.40 0L528.32 0L528.32 0Q529.59-6.15 529.59-9.81L529.59-9.81L529.59-9.81Q529.59-13.48 529.44-15.33L529.44-15.33L529.44-15.33Q529.30-17.19 529.05-19.29L529.05-19.29L529.05-19.29Q528.81-21.39 528.47-23.97L528.47-23.97L528.47-23.97Q528.13-26.56 527.83-29.98L527.83-29.98L527.83-29.98Q525.59-53.32 511.91-68.36L511.91-68.36L511.91-68.36Q505.86-75 498.83-78.47L498.83-78.47L498.83-78.47Q491.80-81.93 487.26-81.93L487.26-81.93L487.26-81.93Q482.71-81.93 480.27-81.35L480.27-81.35L480.27-81.35Q474.80-64.94 474.80-47.07L474.80-47.07L474.80-47.07Q474.80-31.25 476.46-23.44L476.46-23.44L476.46-23.44Q479.10-11.72 484.57 0.10L484.57 0.10L455.37 0.10L455.37 0.10Q457.71-5.76 457.71-24.56L457.71-24.56L457.71-24.56Q457.71-43.36 460.55-59.72L460.55-59.72L460.55-59.72Q463.38-76.07 467.92-88.87L467.92-88.87L467.92-88.87Q472.46-101.66 478.08-111.28L478.08-111.28L478.08-111.28Q483.69-120.90 489.31-128.08L489.31-128.08L489.31-128.08Q494.92-135.25 499.90-140.38L499.90-140.38L499.90-140.38Q504.88-145.51 508.20-149.41L508.20-149.41L538.96-149.41L538.96-149.41Q534.77-144.63 534.77-136.04L534.77-136.04L534.77-136.04Q534.77-132.13 536.04-123.24L536.04-123.24L538.48-105.47L538.48-105.47Q551.86-13.28 562.40 0L562.40 0ZM484.28-91.70L484.28-91.70L484.28-91.70Q488.09-93.16 492.29-93.16L492.29-93.16L492.29-93.16Q496.48-93.16 499.85-92.58L499.85-92.58L499.85-92.58Q503.22-91.99 506.54-90.63L506.54-90.63L506.54-90.63Q513.67-87.89 518.46-81.93L518.46-81.93L518.46-81.93Q513.67-107.03 512.60-112.60L512.60-112.60L509.18-129.69L503.61-123.05L503.61-123.05Q491.89-108.98 484.28-91.70ZM631.74-105.47L631.74-105.47L631.74-105.47Q629.39-111.13 629.39-118.85L629.39-118.85L629.39-118.85Q629.39-126.56 629.98-131.49L629.98-131.49L629.98-131.49Q630.57-136.43 631.54-140.43L631.54-140.43L631.54-140.43Q633.89-149.41 637.30-149.41L637.30-149.41L723.34-149.41L723.34-149.41Q729.00-149.41 730.96-132.62L730.96-132.62L730.96-132.62Q731.45-127.93 731.45-122.95L731.45-122.95L731.45-122.95Q731.45-111.23 728.91-105.47L728.91-105.47L728.91-105.47Q720.51-131.54 707.13-138.87L707.13-138.87L707.13-138.87Q704.10-140.63 701.17-140.63L701.17-140.63L701.17-140.63Q698.24-140.63 696.58-139.11L696.58-139.11L696.58-139.11Q694.92-137.60 693.85-134.28L693.85-134.28L693.85-134.28Q692.09-128.42 692.09-120.21L692.09-120.21L692.09-83.59L692.19-53.71L692.19-25.39L692.19-25.39Q692.19-15.82 694.68-11.28L694.68-11.28L694.68-11.28Q697.17-6.74 699.76-4.39L699.76-4.39L699.76-4.39Q702.34-2.05 705.86 0L705.86 0L655.96 0L655.96 0Q662.99-5.76 664.94-9.47L664.94-9.47L664.94-9.47Q668.55-16.21 668.55-25.39L668.55-25.39L668.55-113.38L668.55-113.38Q668.55-128.71 667.38-133.15L667.38-133.15L667.38-133.15Q666.21-137.60 664.55-139.11L664.55-139.11L664.55-139.11Q662.89-140.63 659.96-140.63L659.96-140.63L659.96-140.63Q657.03-140.63 654.00-138.92L654.00-138.92L654.00-138.92Q650.98-137.21 648.10-134.42L648.10-134.42L648.10-134.42Q645.21-131.64 642.63-127.98L642.63-127.98L642.63-127.98Q640.04-124.32 637.89-120.41L637.89-120.41L637.89-120.41Q633.69-112.70 631.74-105.47ZM780.27-92.77L780.27-92.77L780.27-92.77Q772.85-92.77 772.85-79.39L772.85-79.39L772.85-67.09L772.85-67.09Q772.85-33.11 773.58-25.15L773.58-25.15L773.58-25.15Q774.32-17.19 775.05-14.06L775.05-14.06L775.05-14.06Q775.78-10.94 777.05-8.50L777.05-8.50L777.05-8.50Q779.10-4.49 785.25 0L785.25 0L743.75 0L743.75 0Q747.36-7.23 748.14-12.30L748.14-12.30L748.14-12.30Q748.93-17.38 749.32-23.05L749.32-23.05L749.32-23.05Q750.10-34.57 750.10-54.00L750.10-54.00L750.10-54.00Q750.10-77.54 749.32-96.97L749.32-96.97L748.24-123.83L748.24-123.83Q747.85-133.98 746.48-137.99L746.48-137.99L746.48-137.99Q744.34-144.34 739.45-149.41L739.45-149.41L794.04-149.41L794.04-149.41Q816.11-149.41 825.98-144.73L825.98-144.73L825.98-144.73Q836.43-139.84 836.43-128.03L836.43-128.03L836.43-128.03Q836.43-113.57 824.02-104.10L824.02-104.10L824.02-104.10Q809.38-92.77 780.27-92.77ZM804.64-110.69L804.64-110.69L804.64-110.69Q807.71-113.77 809.18-117.24L809.18-117.24L809.18-117.24Q810.64-120.70 810.64-123.68L810.64-123.68L810.64-123.68Q810.64-126.66 809.81-129.59L809.81-129.59L809.81-129.59Q808.98-132.52 806.54-134.77L806.54-134.77L806.54-134.77Q801.07-139.65 787.79-139.65L787.79-139.65L787.79-139.65Q779.79-139.65 777.34-137.70L777.34-137.70L777.34-137.70Q772.85-133.98 772.85-123.14L772.85-123.14L772.85-123.14Q772.85-110.94 774.80-108.06L774.80-108.06L774.80-108.06Q776.76-105.18 779.30-104.35L779.30-104.35L779.30-104.35Q781.84-103.52 787.06-103.52L787.06-103.52L787.06-103.52Q792.29-103.52 796.92-105.57L796.92-105.57L796.92-105.57Q801.56-107.62 804.64-110.69ZM892.48-55.66L892.48-55.66L892.48-55.66Q866.70-55.66 854.30-52.73L854.30-52.73L854.30-73.24L854.30-73.24Q866.70-70.31 892.48-70.31L892.48-70.31L892.48-70.31Q892.48-96.78 889.55-108.50L889.55-108.50L910.06-108.50L910.06-108.50Q907.13-96.78 907.13-70.31L907.13-70.31L907.13-70.31Q933.59-70.31 945.31-73.24L945.31-73.24L945.31-52.73L945.31-52.73Q933.59-55.66 907.13-55.66L907.13-55.66L907.13-55.66Q907.13-29.88 910.06-17.48L910.06-17.48L889.55-17.48L889.55-17.48Q892.48-29.88 892.48-55.66Z" fill="#f7c61d"></path></g></g><style>text {
  font-size: 64px;
  font-family: Arial Black;
  dominant-baseline: central;
  text-anchor: middle;
}</style></svg>