<svg width="438.87998046875px" height="128.50250549316405px" xmlns="http://www.w3.org/2000/svg" viewBox="30.56000976562501 10.748747253417974 438.87998046875 128.50250549316405" style="background: rgba(0, 0, 0, 0);" preserveAspectRatio="xMidYMid"><defs><filter id="editing-metal-beveled"><feGaussianBlur stdDeviation="4" in="SourceAlpha" result="blur"></feGaussianBlur><feSpecularLighting surfaceScale="5" specularConstant="0.8" specularExponent="7.5" lighting-color="#fff" in="blur" result="specular"><fePointLight x="-250" y="-50" z="300"></fePointLight></feSpecularLighting><feComposite operator="in" in="specular" in2="SourceAlpha" result="comp"></feComposite><feComposite in="SourceGraphic" in2="comp" operator="arithmetic" k1="0" k2="1" k3="1" k4="0"></feComposite></filter></defs><g filter="url(#editing-metal-beveled)"><g transform="translate(98.5600024163723, 99.22000122070312)"><path d="M1.13-33.75L1.13-33.75L1.13-33.75Q0.38-35.56 0.38-38.03L0.38-38.03L0.38-38.03Q0.38-40.50 0.56-42.08L0.56-42.08L0.56-42.08Q0.75-43.66 1.06-44.94L1.06-44.94L1.06-44.94Q1.81-47.81 2.91-47.81L2.91-47.81L30.44-47.81L30.44-47.81Q32.25-47.81 32.88-42.44L32.88-42.44L32.88-42.44Q33.03-40.94 33.03-39.34L33.03-39.34L33.03-39.34Q33.03-35.59 32.22-33.75L32.22-33.75L32.22-33.75Q29.53-42.09 25.25-44.44L25.25-44.44L25.25-44.44Q24.28-45 23.34-45L23.34-45L23.34-45Q22.41-45 21.88-44.52L21.88-44.52L21.88-44.52Q21.34-44.03 21-42.97L21-42.97L21-42.97Q20.44-41.09 20.44-38.47L20.44-38.47L20.44-26.75L20.47-17.19L20.47-8.13L20.47-8.13Q20.47-5.06 21.27-3.61L21.27-3.61L21.27-3.61Q22.06-2.16 22.89-1.41L22.89-1.41L22.89-1.41Q23.72-0.66 24.84 0L24.84 0L8.88 0L8.88 0Q11.13-1.84 11.75-3.03L11.75-3.03L11.75-3.03Q12.91-5.19 12.91-8.13L12.91-8.13L12.91-36.28L12.91-36.28Q12.91-41.19 12.53-42.61L12.53-42.61L12.53-42.61Q12.16-44.03 11.63-44.52L11.63-44.52L11.63-44.52Q11.09-45 10.16-45L10.16-45L10.16-45Q9.22-45 8.25-44.45L8.25-44.45L8.25-44.45Q7.28-43.91 6.36-43.02L6.36-43.02L6.36-43.02Q5.44-42.13 4.61-40.95L4.61-40.95L4.61-40.95Q3.78-39.78 3.09-38.53L3.09-38.53L3.09-38.53Q1.75-36.06 1.13-33.75ZM69.84 0L58.94 0L58.94 0Q59.34-1.97 59.34-3.14L59.34-3.14L59.34-3.14Q59.34-4.31 59.30-4.91L59.30-4.91L59.30-4.91Q59.25-5.50 59.17-6.17L59.17-6.17L59.17-6.17Q59.09-6.84 58.98-7.67L58.98-7.67L58.98-7.67Q58.88-8.50 58.78-9.59L58.78-9.59L58.78-9.59Q58.06-17.06 53.69-21.88L53.69-21.88L53.69-21.88Q51.75-24 49.50-25.11L49.50-25.11L49.50-25.11Q47.25-26.22 45.80-26.22L45.80-26.22L45.80-26.22Q44.34-26.22 43.56-26.03L43.56-26.03L43.56-26.03Q41.81-20.78 41.81-15.06L41.81-15.06L41.81-15.06Q41.81-10 42.34-7.50L42.34-7.50L42.34-7.50Q43.19-3.75 44.94 0.03L44.94 0.03L35.59 0.03L35.59 0.03Q36.34-1.84 36.34-7.86L36.34-7.86L36.34-7.86Q36.34-13.88 37.25-19.11L37.25-19.11L37.25-19.11Q38.16-24.34 39.61-28.44L39.61-28.44L39.61-28.44Q41.06-32.53 42.86-35.61L42.86-35.61L42.86-35.61Q44.66-38.69 46.45-40.98L46.45-40.98L46.45-40.98Q48.25-43.28 49.84-44.92L49.84-44.92L49.84-44.92Q51.44-46.56 52.50-47.81L52.50-47.81L62.34-47.81L62.34-47.81Q61-46.28 61-43.53L61-43.53L61-43.53Q61-42.28 61.41-39.44L61.41-39.44L62.19-33.75L62.19-33.75Q66.47-4.25 69.84 0L69.84 0ZM44.84-29.34L44.84-29.34L44.84-29.34Q46.06-29.81 47.41-29.81L47.41-29.81L47.41-29.81Q48.75-29.81 49.83-29.63L49.83-29.63L49.83-29.63Q50.91-29.44 51.97-29L51.97-29L51.97-29Q54.25-28.13 55.78-26.22L55.78-26.22L55.78-26.22Q54.25-34.25 53.91-36.03L53.91-36.03L52.81-41.50L51.03-39.38L51.03-39.38Q47.28-34.88 44.84-29.34ZM92.81-25.25L92.81-25.25L92.84-13.44L92.84-13.44Q92.84-7.78 90-3.88L90-3.88L90-3.88Q86.66 0.63 80.69 0.63L80.69 0.63L80.69 0.63Q76 0.63 73.19-2.50L73.19-2.50L73.19-2.50Q70.63-5.34 70.63-9.38L70.63-9.38L70.63-9.38Q72.03-12.63 73.63-14.34L73.63-14.34L73.63-14.34Q76.25-17.19 78-17.50L78-17.50L78-17.50Q77.50-14.66 77.50-12.28L77.50-12.28L77.50-12.28Q77.50-9.91 77.70-8.27L77.70-8.27L77.70-8.27Q77.91-6.63 78.38-5.34L78.38-5.34L78.38-5.34Q79.41-2.50 81.63-2.50L81.63-2.50L81.63-2.50Q83.56-2.50 84.56-5L84.56-5L84.56-5Q85.41-7.06 85.41-10.53L85.41-10.53L85.41-18.03L85.41-18.03Q85.41-31.59 85.22-40.88L85.22-40.88L85.22-40.88Q85.16-43.34 84.48-44.95L84.48-44.95L84.48-44.95Q83.81-46.56 82.22-47.81L82.22-47.81L94.56-47.81L94.56-47.81Q93.63-46.13 93.42-44.19L93.42-44.19L93.42-44.19Q93.22-42.25 93.06-39.94L93.06-39.94L93.06-39.94Q92.81-35.53 92.81-25.25ZM113.94-19.19L108.09-36.97L108.09-36.97Q107.97-32.41 107.97-27.53L107.97-27.53L107.97-27.53Q107.97-20.88 108.19-13.19L108.19-13.19L108.19-13.19Q108.41-5.50 108.52-4.45L108.52-4.45L108.52-4.45Q108.63-3.41 108.81-2.63L108.81-2.63L108.81-2.63Q109.16-1.19 109.94 0L109.94 0L101.22 0L101.22 0Q102.41-1.69 102.64-3.63L102.64-3.63L102.64-3.63Q102.88-5.56 103-7.38L103-7.38L103-7.38Q103.25-11.06 103.25-17.28L103.25-17.28L103.25-17.28Q103.25-24.81 103-31.03L103-31.03L102.66-39.63L102.66-39.63Q102.47-44.38 101.13-46.38L101.13-46.38L101.13-46.38Q100.63-47.13 99.84-47.81L99.84-47.81L112.06-47.81L112.06-47.81Q113.28-42.47 115.09-36.47L115.09-36.47L120.78-18.31L129.50-47.81L141.69-47.81L141.69-47.81Q140.16-46.47 139.69-45.06L139.69-45.06L139.69-45.06Q139-42.91 138.91-40.06L138.91-40.06L138.69-34.53L138.69-34.53Q138.28-24.81 138.28-17.28L138.28-17.28L138.28-17.28Q138.28-4.66 139.44-1.25L139.44-1.25L139.44-1.25Q139.66-0.63 140 0L140 0L130.16 0L130.16 0Q131-1.66 131.11-3.58L131.11-3.58L131.11-3.58Q131.22-5.50 131.31-8.88L131.31-8.88L131.31-8.88Q131.69-19.97 131.69-25.03L131.69-25.03L131.69-25.03Q131.69-33.38 131.53-37.44L131.53-37.44L120.03 0L113.94-19.19ZM179.97 0L169.06 0L169.06 0Q169.47-1.97 169.47-3.14L169.47-3.14L169.47-3.14Q169.47-4.31 169.42-4.91L169.42-4.91L169.42-4.91Q169.38-5.50 169.30-6.17L169.30-6.17L169.30-6.17Q169.22-6.84 169.11-7.67L169.11-7.67L169.11-7.67Q169-8.50 168.91-9.59L168.91-9.59L168.91-9.59Q168.19-17.06 163.81-21.88L163.81-21.88L163.81-21.88Q161.88-24 159.63-25.11L159.63-25.11L159.63-25.11Q157.38-26.22 155.92-26.22L155.92-26.22L155.92-26.22Q154.47-26.22 153.69-26.03L153.69-26.03L153.69-26.03Q151.94-20.78 151.94-15.06L151.94-15.06L151.94-15.06Q151.94-10 152.47-7.50L152.47-7.50L152.47-7.50Q153.31-3.75 155.06 0.03L155.06 0.03L145.72 0.03L145.72 0.03Q146.47-1.84 146.47-7.86L146.47-7.86L146.47-7.86Q146.47-13.88 147.38-19.11L147.38-19.11L147.38-19.11Q148.28-24.34 149.73-28.44L149.73-28.44L149.73-28.44Q151.19-32.53 152.98-35.61L152.98-35.61L152.98-35.61Q154.78-38.69 156.58-40.98L156.58-40.98L156.58-40.98Q158.38-43.28 159.97-44.92L159.97-44.92L159.97-44.92Q161.56-46.56 162.63-47.81L162.63-47.81L172.47-47.81L172.47-47.81Q171.13-46.28 171.13-43.53L171.13-43.53L171.13-43.53Q171.13-42.28 171.53-39.44L171.53-39.44L172.31-33.75L172.31-33.75Q176.59-4.25 179.97 0L179.97 0ZM154.97-29.34L154.97-29.34L154.97-29.34Q156.19-29.81 157.53-29.81L157.53-29.81L157.53-29.81Q158.88-29.81 159.95-29.63L159.95-29.63L159.95-29.63Q161.03-29.44 162.09-29L162.09-29L162.09-29Q164.38-28.13 165.91-26.22L165.91-26.22L165.91-26.22Q164.38-34.25 164.03-36.03L164.03-36.03L162.94-41.50L161.16-39.38L161.16-39.38Q157.41-34.88 154.97-29.34ZM202.16-33.75L202.16-33.75L202.16-33.75Q201.41-35.56 201.41-38.03L201.41-38.03L201.41-38.03Q201.41-40.50 201.59-42.08L201.59-42.08L201.59-42.08Q201.78-43.66 202.09-44.94L202.09-44.94L202.09-44.94Q202.84-47.81 203.94-47.81L203.94-47.81L231.47-47.81L231.47-47.81Q233.28-47.81 233.91-42.44L233.91-42.44L233.91-42.44Q234.06-40.94 234.06-39.34L234.06-39.34L234.06-39.34Q234.06-35.59 233.25-33.75L233.25-33.75L233.25-33.75Q230.56-42.09 226.28-44.44L226.28-44.44L226.28-44.44Q225.31-45 224.38-45L224.38-45L224.38-45Q223.44-45 222.91-44.52L222.91-44.52L222.91-44.52Q222.38-44.03 222.03-42.97L222.03-42.97L222.03-42.97Q221.47-41.09 221.47-38.47L221.47-38.47L221.47-26.75L221.50-17.19L221.50-8.13L221.50-8.13Q221.50-5.06 222.30-3.61L222.30-3.61L222.30-3.61Q223.09-2.16 223.92-1.41L223.92-1.41L223.92-1.41Q224.75-0.66 225.88 0L225.88 0L209.91 0L209.91 0Q212.16-1.84 212.78-3.03L212.78-3.03L212.78-3.03Q213.94-5.19 213.94-8.13L213.94-8.13L213.94-36.28L213.94-36.28Q213.94-41.19 213.56-42.61L213.56-42.61L213.56-42.61Q213.19-44.03 212.66-44.52L212.66-44.52L212.66-44.52Q212.13-45 211.19-45L211.19-45L211.19-45Q210.25-45 209.28-44.45L209.28-44.45L209.28-44.45Q208.31-43.91 207.39-43.02L207.39-43.02L207.39-43.02Q206.47-42.13 205.64-40.95L205.64-40.95L205.64-40.95Q204.81-39.78 204.13-38.53L204.13-38.53L204.13-38.53Q202.78-36.06 202.16-33.75ZM249.69-29.69L249.69-29.69L249.69-29.69Q247.31-29.69 247.31-25.41L247.31-25.41L247.31-21.47L247.31-21.47Q247.31-10.59 247.55-8.05L247.55-8.05L247.55-8.05Q247.78-5.50 248.02-4.50L248.02-4.50L248.02-4.50Q248.25-3.50 248.66-2.72L248.66-2.72L248.66-2.72Q249.31-1.44 251.28 0L251.28 0L238 0L238 0Q239.16-2.31 239.41-3.94L239.41-3.94L239.41-3.94Q239.66-5.56 239.78-7.38L239.78-7.38L239.78-7.38Q240.03-11.06 240.03-17.28L240.03-17.28L240.03-17.28Q240.03-24.81 239.78-31.03L239.78-31.03L239.44-39.63L239.44-39.63Q239.31-42.88 238.88-44.16L238.88-44.16L238.88-44.16Q238.19-46.19 236.63-47.81L236.63-47.81L254.09-47.81L254.09-47.81Q261.16-47.81 264.31-46.31L264.31-46.31L264.31-46.31Q267.66-44.75 267.66-40.97L267.66-40.97L267.66-40.97Q267.66-36.34 263.69-33.31L263.69-33.31L263.69-33.31Q259-29.69 249.69-29.69ZM257.48-35.42L257.48-35.42L257.48-35.42Q258.47-36.41 258.94-37.52L258.94-37.52L258.94-37.52Q259.41-38.63 259.41-39.58L259.41-39.58L259.41-39.58Q259.41-40.53 259.14-41.47L259.14-41.47L259.14-41.47Q258.88-42.41 258.09-43.13L258.09-43.13L258.09-43.13Q256.34-44.69 252.09-44.69L252.09-44.69L252.09-44.69Q249.53-44.69 248.75-44.06L248.75-44.06L248.75-44.06Q247.31-42.88 247.31-39.41L247.31-39.41L247.31-39.41Q247.31-35.50 247.94-34.58L247.94-34.58L247.94-34.58Q248.56-33.66 249.38-33.39L249.38-33.39L249.38-33.39Q250.19-33.13 251.86-33.13L251.86-33.13L251.86-33.13Q253.53-33.13 255.02-33.78L255.02-33.78L255.02-33.78Q256.50-34.44 257.48-35.42ZM285.59-17.81L285.59-17.81L285.59-17.81Q277.34-17.81 273.38-16.88L273.38-16.88L273.38-23.44L273.38-23.44Q277.34-22.50 285.59-22.50L285.59-22.50L285.59-22.50Q285.59-30.97 284.66-34.72L284.66-34.72L291.22-34.72L291.22-34.72Q290.28-30.97 290.28-22.50L290.28-22.50L290.28-22.50Q298.75-22.50 302.50-23.44L302.50-23.44L302.50-16.88L302.50-16.88Q298.75-17.81 290.28-17.81L290.28-17.81L290.28-17.81Q290.28-9.56 291.22-5.59L291.22-5.59L284.66-5.59L284.66-5.59Q285.59-9.56 285.59-17.81Z" fill="#444"></path></g></g><style>text {
  font-size: 64px;
  font-family: Arial Black;
  dominant-baseline: central;
  text-anchor: middle;
}</style></svg>