<svg width="942.8450439453125px" height="260.03984375px" xmlns="http://www.w3.org/2000/svg" viewBox="-221.42252197265623 -55.019921874999994 942.8450439453125 260.03984375" style="background: rgba(0, 0, 0, 0);" preserveAspectRatio="xMidYMid"><defs><filter id="editing-golden" x="-100%" y="-100%" width="300%" height="300%"><feFlood flood-color="#806527" result="flood"></feFlood><feFlood flood-color="#fff694" result="flood-light"></feFlood><feComposite operator="in" in="flood" in2="SourceAlpha" result="flood-comp"></feComposite><feGaussianBlur in="flood-comp" stdDeviation="3" result="blur"></feGaussianBlur><feOffset in="blur" dy="3" result="offset-blur"></feOffset><feComponentTransfer in="offset-blur" result="comp-blur"><feFuncA type="linear" slope="0.7" intercept="-0.1"></feFuncA></feComponentTransfer><feSpecularLighting surfaceScale="200" specularConstant="20" specularExponent="1" lighting-color="#fff" in="blur" result="specular"><fePointLight x="-250" y="-250" z="3500"></fePointLight></feSpecularLighting><feComponentTransfer in="specular" result="inspecular"><feFuncA type="linear" slope="-1" intercept="1"></feFuncA></feComponentTransfer><feComposite operator="in" in="flood-light" in2="inspecular" result="inspecular2"></feComposite><feComposite operator="in" in="inspecular2" in2="SourceAlpha" result="light"></feComposite><feMerge><feMergeNode in="comp-blur"></feMergeNode><feMergeNode in="SourceGraphic"></feMergeNode><feMergeNode in="light"></feMergeNode></feMerge></filter></defs><g filter="url(#editing-golden)"><g transform="translate(-83.6399976015091, 128.3599967956543)"><path d="M2.48-74.36L2.48-74.36L2.48-74.36Q0.83-78.35 0.83-83.79L0.83-83.79L0.83-83.79Q0.83-89.23 1.24-92.70L1.24-92.70L1.24-92.70Q1.65-96.18 2.34-99.00L2.34-99.00L2.34-99.00Q3.99-105.34 6.40-105.34L6.40-105.34L67.06-105.34L67.06-105.34Q71.05-105.34 72.43-93.50L72.43-93.50L72.43-93.50Q72.77-90.19 72.77-86.68L72.77-86.68L72.77-86.68Q72.77-78.42 70.98-74.36L70.98-74.36L70.98-74.36Q65.06-92.74 55.63-97.90L55.63-97.90L55.63-97.90Q53.49-99.14 51.43-99.14L51.43-99.14L51.43-99.14Q49.36-99.14 48.19-98.07L48.19-98.07L48.19-98.07Q47.02-97.01 46.27-94.67L46.27-94.67L46.27-94.67Q45.03-90.53 45.03-84.75L45.03-84.75L45.03-58.93L45.10-37.87L45.10-17.90L45.10-17.90Q45.10-11.15 46.85-7.95L46.85-7.95L46.85-7.95Q48.61-4.75 50.43-3.10L50.43-3.10L50.43-3.10Q52.26-1.45 54.73 0L54.73 0L19.55 0L19.55 0Q24.51-4.06 25.89-6.68L25.89-6.68L25.89-6.68Q28.43-11.43 28.43-17.90L28.43-17.90L28.43-79.93L28.43-79.93Q28.43-90.74 27.61-93.87L27.61-93.87L27.61-93.87Q26.78-97.01 25.61-98.07L25.61-98.07L25.61-98.07Q24.44-99.14 22.38-99.14L22.38-99.14L22.38-99.14Q20.31-99.14 18.18-97.94L18.18-97.94L18.18-97.94Q16.04-96.73 14.01-94.77L14.01-94.77L14.01-94.77Q11.98-92.81 10.16-90.22L10.16-90.22L10.16-90.22Q8.33-87.64 6.82-84.89L6.82-84.89L6.82-84.89Q3.86-79.45 2.48-74.36ZM153.87 0L129.85 0L129.85 0Q130.74-4.34 130.74-6.92L130.74-6.92L130.74-6.92Q130.74-9.50 130.64-10.81L130.64-10.81L130.64-10.81Q130.54-12.12 130.36-13.60L130.36-13.60L130.36-13.60Q130.19-15.08 129.95-16.90L129.95-16.90L129.95-16.90Q129.71-18.73 129.50-21.14L129.50-21.14L129.50-21.14Q127.92-37.59 118.28-48.19L118.28-48.19L118.28-48.19Q114.01-52.88 109.05-55.32L109.05-55.32L109.05-55.32Q104.10-57.76 100.90-57.76L100.90-57.76L100.90-57.76Q97.69-57.76 95.97-57.35L95.97-57.35L95.97-57.35Q92.12-45.78 92.12-33.18L92.12-33.18L92.12-33.18Q92.12-22.03 93.29-16.52L93.29-16.52L93.29-16.52Q95.15-8.26 99.00 0.07L99.00 0.07L78.42 0.07L78.42 0.07Q80.07-4.06 80.07-17.32L80.07-17.32L80.07-17.32Q80.07-30.57 82.07-42.10L82.07-42.10L82.07-42.10Q84.06-53.63 87.26-62.65L87.26-62.65L87.26-62.65Q90.47-71.67 94.42-78.45L94.42-78.45L94.42-78.45Q98.38-85.23 102.34-90.29L102.34-90.29L102.34-90.29Q106.30-95.35 109.81-98.97L109.81-98.97L109.81-98.97Q113.32-102.58 115.66-105.34L115.66-105.34L137.35-105.34L137.35-105.34Q134.39-101.96 134.39-95.90L134.39-95.90L134.39-95.90Q134.39-93.15 135.29-86.89L135.29-86.89L137.01-74.36L137.01-74.36Q146.44-9.36 153.87 0L153.87 0ZM98.80-64.65L98.80-64.65L98.80-64.65Q101.48-65.68 104.44-65.68L104.44-65.68L104.44-65.68Q107.40-65.68 109.78-65.27L109.78-65.27L109.78-65.27Q112.15-64.85 114.49-63.89L114.49-63.89L114.49-63.89Q119.52-61.96 122.89-57.76L122.89-57.76L122.89-57.76Q119.52-75.46 118.76-79.38L118.76-79.38L116.35-91.43L112.43-86.75L112.43-86.75Q104.17-76.83 98.80-64.65ZM204.48-55.63L204.48-55.63L204.55-29.60L204.55-29.60Q204.55-17.14 198.28-8.54L198.28-8.54L198.28-8.54Q190.91 1.38 177.76 1.38L177.76 1.38L177.76 1.38Q167.44 1.38 161.24-5.51L161.24-5.51L161.24-5.51Q155.60-11.77 155.60-20.65L155.60-20.65L155.60-20.65Q158.69-27.81 162.21-31.60L162.21-31.60L162.21-31.60Q167.99-37.87 171.84-38.55L171.84-38.55L171.84-38.55Q170.74-32.29 170.74-27.06L170.74-27.06L170.74-27.06Q170.74-21.82 171.19-18.21L171.19-18.21L171.19-18.21Q171.64-14.60 172.67-11.77L172.67-11.77L172.67-11.77Q174.94-5.51 179.83-5.51L179.83-5.51L179.83-5.51Q184.10-5.51 186.30-11.02L186.30-11.02L186.30-11.02Q188.16-15.56 188.16-23.20L188.16-23.20L188.16-39.73L188.16-39.73Q188.16-69.60 187.75-90.05L187.75-90.05L187.75-90.05Q187.61-95.49 186.13-99.04L186.13-99.04L186.13-99.04Q184.65-102.58 181.14-105.34L181.14-105.34L208.33-105.34L208.33-105.34Q206.27-101.62 205.82-97.35L205.82-97.35L205.82-97.35Q205.37-93.08 205.03-87.99L205.03-87.99L205.03-87.99Q204.48-78.28 204.48-55.63ZM251.02-42.27L238.14-81.45L238.14-81.45Q237.87-71.40 237.87-60.65L237.87-60.65L237.87-60.65Q237.87-45.99 238.35-29.05L238.35-29.05L238.35-29.05Q238.83-12.12 239.07-9.81L239.07-9.81L239.07-9.81Q239.31-7.50 239.73-5.78L239.73-5.78L239.73-5.78Q240.48-2.62 242.21 0L242.21 0L223.00 0L223.00 0Q225.61-3.72 226.13-7.99L226.13-7.99L226.13-7.99Q226.65-12.25 226.92-16.25L226.92-16.25L226.92-16.25Q227.47-24.37 227.47-38.07L227.47-38.07L227.47-38.07Q227.47-54.67 226.92-68.37L226.92-68.37L226.16-87.30L226.16-87.30Q225.75-97.76 222.79-102.17L222.79-102.17L222.79-102.17Q221.69-103.82 219.97-105.34L219.97-105.34L246.89-105.34L246.89-105.34Q249.57-93.56 253.57-80.35L253.57-80.35L266.10-40.34L285.30-105.34L312.16-105.34L312.16-105.34Q308.78-102.38 307.75-99.28L307.75-99.28L307.75-99.28Q306.23-94.53 306.03-88.26L306.03-88.26L305.55-76.08L305.55-76.08Q304.65-54.67 304.65-38.07L304.65-38.07L304.65-38.07Q304.65-10.26 307.20-2.75L307.20-2.75L307.20-2.75Q307.68-1.38 308.44 0L308.44 0L286.75 0L286.75 0Q288.61-3.65 288.85-7.88L288.85-7.88L288.85-7.88Q289.09-12.12 289.30-19.55L289.30-19.55L289.30-19.55Q290.12-43.99 290.12-55.15L290.12-55.15L290.12-55.15Q290.12-73.53 289.78-82.48L289.78-82.48L264.44 0L251.02-42.27ZM396.49 0L372.47 0L372.47 0Q373.36-4.34 373.36-6.92L373.36-6.92L373.36-6.92Q373.36-9.50 373.26-10.81L373.26-10.81L373.26-10.81Q373.15-12.12 372.98-13.60L372.98-13.60L372.98-13.60Q372.81-15.08 372.57-16.90L372.57-16.90L372.57-16.90Q372.33-18.73 372.12-21.14L372.12-21.14L372.12-21.14Q370.54-37.59 360.90-48.19L360.90-48.19L360.90-48.19Q356.63-52.88 351.67-55.32L351.67-55.32L351.67-55.32Q346.72-57.76 343.52-57.76L343.52-57.76L343.52-57.76Q340.31-57.76 338.59-57.35L338.59-57.35L338.59-57.35Q334.74-45.78 334.74-33.18L334.74-33.18L334.74-33.18Q334.74-22.03 335.91-16.52L335.91-16.52L335.91-16.52Q337.77-8.26 341.62 0.07L341.62 0.07L321.04 0.07L321.04 0.07Q322.69-4.06 322.69-17.32L322.69-17.32L322.69-17.32Q322.69-30.57 324.69-42.10L324.69-42.10L324.69-42.10Q326.68-53.63 329.88-62.65L329.88-62.65L329.88-62.65Q333.08-71.67 337.04-78.45L337.04-78.45L337.04-78.45Q341.00-85.23 344.96-90.29L344.96-90.29L344.96-90.29Q348.92-95.35 352.43-98.97L352.43-98.97L352.43-98.97Q355.94-102.58 358.28-105.34L358.28-105.34L379.97-105.34L379.97-105.34Q377.01-101.96 377.01-95.90L377.01-95.90L377.01-95.90Q377.01-93.15 377.90-86.89L377.90-86.89L379.63-74.36L379.63-74.36Q389.06-9.36 396.49 0L396.49 0ZM341.42-64.65L341.42-64.65L341.42-64.65Q344.10-65.68 347.06-65.68L347.06-65.68L347.06-65.68Q350.02-65.68 352.40-65.27L352.40-65.27L352.40-65.27Q354.77-64.85 357.11-63.89L357.11-63.89L357.11-63.89Q362.14-61.96 365.51-57.76L365.51-57.76L365.51-57.76Q362.14-75.46 361.38-79.38L361.38-79.38L358.97-91.43L355.05-86.75L355.05-86.75Q346.79-76.83 341.42-64.65ZM445.38-74.36L445.38-74.36L445.38-74.36Q443.72-78.35 443.72-83.79L443.72-83.79L443.72-83.79Q443.72-89.23 444.14-92.70L444.14-92.70L444.14-92.70Q444.55-96.18 445.24-99.00L445.24-99.00L445.24-99.00Q446.89-105.34 449.30-105.34L449.30-105.34L509.95-105.34L509.95-105.34Q513.95-105.34 515.32-93.50L515.32-93.50L515.32-93.50Q515.67-90.19 515.67-86.68L515.67-86.68L515.67-86.68Q515.67-78.42 513.88-74.36L513.88-74.36L513.88-74.36Q507.96-92.74 498.53-97.90L498.53-97.90L498.53-97.90Q496.39-99.14 494.33-99.14L494.33-99.14L494.33-99.14Q492.26-99.14 491.09-98.07L491.09-98.07L491.09-98.07Q489.92-97.01 489.16-94.67L489.16-94.67L489.16-94.67Q487.92-90.53 487.92-84.75L487.92-84.75L487.92-58.93L487.99-37.87L487.99-17.90L487.99-17.90Q487.99-11.15 489.75-7.95L489.75-7.95L489.75-7.95Q491.50-4.75 493.33-3.10L493.33-3.10L493.33-3.10Q495.15-1.45 497.63 0L497.63 0L462.45 0L462.45 0Q467.41-4.06 468.78-6.68L468.78-6.68L468.78-6.68Q471.33-11.43 471.33-17.90L471.33-17.90L471.33-79.93L471.33-79.93Q471.33-90.74 470.50-93.87L470.50-93.87L470.50-93.87Q469.68-97.01 468.51-98.07L468.51-98.07L468.51-98.07Q467.34-99.14 465.27-99.14L465.27-99.14L465.27-99.14Q463.21-99.14 461.07-97.94L461.07-97.94L461.07-97.94Q458.94-96.73 456.91-94.77L456.91-94.77L456.91-94.77Q454.88-92.81 453.05-90.22L453.05-90.22L453.05-90.22Q451.23-87.64 449.71-84.89L449.71-84.89L449.71-84.89Q446.75-79.45 445.38-74.36ZM550.09-65.41L550.09-65.41L550.09-65.41Q544.86-65.41 544.86-55.97L544.86-55.97L544.86-47.30L544.86-47.30Q544.86-23.34 545.38-17.73L545.38-17.73L545.38-17.73Q545.89-12.12 546.41-9.91L546.41-9.91L546.41-9.91Q546.93-7.71 547.82-5.99L547.82-5.99L547.82-5.99Q549.27-3.17 553.60 0L553.60 0L524.34 0L524.34 0Q526.89-5.09 527.44-8.67L527.44-8.67L527.44-8.67Q527.99-12.25 528.27-16.25L528.27-16.25L528.27-16.25Q528.82-24.37 528.82-38.07L528.82-38.07L528.82-38.07Q528.82-54.67 528.27-68.37L528.27-68.37L527.51-87.30L527.51-87.30Q527.24-94.46 526.27-97.28L526.27-97.28L526.27-97.28Q524.76-101.76 521.31-105.34L521.31-105.34L559.80-105.34L559.80-105.34Q575.36-105.34 582.31-102.03L582.31-102.03L582.31-102.03Q589.68-98.59 589.68-90.26L589.68-90.26L589.68-90.26Q589.68-80.07 580.94-73.39L580.94-73.39L580.94-73.39Q570.61-65.41 550.09-65.41ZM567.27-78.04L567.27-78.04L567.27-78.04Q569.44-80.21 570.47-82.65L570.47-82.65L570.47-82.65Q571.50-85.10 571.50-87.20L571.50-87.20L571.50-87.20Q571.50-89.30 570.92-91.36L570.92-91.36L570.92-91.36Q570.33-93.43 568.61-95.01L568.61-95.01L568.61-95.01Q564.76-98.45 555.39-98.45L555.39-98.45L555.39-98.45Q549.75-98.45 548.03-97.08L548.03-97.08L548.03-97.08Q544.86-94.46 544.86-86.82L544.86-86.82L544.86-86.82Q544.86-78.21 546.24-76.18L546.24-76.18L546.24-76.18Q547.61-74.15 549.40-73.56L549.40-73.56L549.40-73.56Q551.19-72.98 554.88-72.98L554.88-72.98L554.88-72.98Q558.56-72.98 561.83-74.42L561.83-74.42L561.83-74.42Q565.10-75.87 567.27-78.04ZM629.20-39.24L629.20-39.24L629.20-39.24Q611.02-39.24 602.28-37.18L602.28-37.18L602.28-51.64L602.28-51.64Q611.02-49.57 629.20-49.57L629.20-49.57L629.20-49.57Q629.20-68.23 627.13-76.49L627.13-76.49L641.59-76.49L641.59-76.49Q639.53-68.23 639.53-49.57L639.53-49.57L639.53-49.57Q658.18-49.57 666.45-51.64L666.45-51.64L666.45-37.18L666.45-37.18Q658.18-39.24 639.53-39.24L639.53-39.24L639.53-39.24Q639.53-21.07 641.59-12.32L641.59-12.32L627.13-12.32L627.13-12.32Q629.20-21.07 629.20-39.24Z" fill="#f7c61d"></path></g></g><style>text {
  font-size: 64px;
  font-family: Arial Black;
  dominant-baseline: central;
  text-anchor: middle;
}</style></svg>